<svg xmlns="http://www.w3.org/2000/svg" xmlns:xlink="http://www.w3.org/1999/xlink" width="876.402" height="830.335" viewBox="0 0 876.402 830.335">
  <defs>
    <linearGradient id="linear-gradient" x1="0.925" y1="0.457" x2="0.202" y2="0.986" gradientUnits="objectBoundingBox">
      <stop offset="0" stop-color="#fff"/>
      <stop offset="1" stop-color="#fbb03b"/>
    </linearGradient>
    <clipPath id="clip-path">
      <rect id="Rectangle_560" data-name="Rectangle 560" width="876.402" height="830.335" transform="translate(0 164)" fill="url(#linear-gradient)"/>
    </clipPath>
  </defs>
  <g id="Group_235" data-name="Group 235" transform="translate(0 -164)" clip-path="url(#clip-path)">
    <path id="Path_524" data-name="Path 524" d="M782.588,126.914,650.041,34C598.968-1.8,530.415-9.494,451.781,11.7c-14.827,4-39.617,13.774-57.8,21.274a50.033,50.033,0,1,0,38.378,92.413c68.88-28.891,130.056-29.091,172.254-.567,45.274,30.6,67.7,92.676,63.163,174.79C662.708,391.15,625,493.227,561.589,587.037S417.513,753.892,334.455,792.72c-74.5,34.826-140.464,37.148-185.738,6.542-21.727-14.691-38.251-36.686-49.1-65.382a51.14,51.14,0,0,0-50.342-33.024A51.8,51.8,0,0,0,8.8,723.6a50.739,50.739,0,0,0-5.807,45.723C19.432,815.595,45.8,851.237,81.353,875.256l63.1,42.638-.059.009,60.5,40.864c35.116,23.724,76.706,35.57,122.652,35.57,47.9,0,100.53-12.88,155.458-38.609,98.67-46.227,193.71-131.553,267.616-240.263C824.55,606.709,868.894,486.943,875.482,378.233c7-115.161-26-204.417-92.894-251.32M645.409,643.667c73.471-108.7,117.28-228.93,123.346-338.561q.367-6.615.549-13.134c5.331,23.751,7.2,50.691,5.413,80.227C763.378,559.248,610.2,784.53,440.216,864.145c-24.872,11.651-48.813,19.659-71.366,24q4.185-1.858,8.384-3.82c99.459-46.49,194.7-131.962,268.174-240.658" transform="translate(-0.001 -0.001)" fill="url(#linear-gradient)"/>
  </g>
</svg>
